# xmcd
#
# Track frame offsets: 
#        150
#        23724
#        39108
#        61091
#        85907
#        110906
#        131662
#        146342
#        178809
#        197782
#        214388
#        233336
#
# Disc length: 3499 seconds
#
# Revision: 2
# Processed by: cddbd v1.5.2PL0 Copyright (c) Steve Scherf et al.
# Submitted via: ExactAudioCopyFreeDBPlugin 1.0
#
DISCID=a20da90c
DTITLE=Toni Vescoli - 66
DYEAR=2007
DGENRE=Folk-Rock
TTITLE0=De Berg
TTITLE1=El Parasito
TTITLE2=Wäge Dir
TTITLE3=New Orleans Waltz
TTITLE4=Bourbon Street
TTITLE5=Du bisch g'fange
TTITLE6=Combien d'amis
TTITLE7=Blue Angel
TTITLE8=Lady Lo
TTITLE9=Josie
TTITLE10=Nüme so cool
TTITLE11=Las es los
EXTD=Toni Vescoli ein Mitglied der legendaren Schweizer 68er Band "les
EXTD=sauterelles"
EXTT0=
EXTT1=
EXTT2=
EXTT3=
EXTT4=
EXTT5=
EXTT6=
EXTT7=
EXTT8=
EXTT9=
EXTT10=
EXTT11=
PLAYORDER=
